<svg width="64" height="64" viewBox="0 0 64 64" fill="none" xmlns="http://www.w3.org/2000/svg">
<g clip-path="url(#clip0_1_2)">
<rect width="64" height="64" rx="6" fill="white"/>
<path d="M17.7736 23.721C18.4889 23.721 19.1056 23.7827 19.6236 23.906C20.1662 24.0293 20.7459 24.1897 21.3626 24.387V27.236C20.8692 26.718 20.3266 26.2863 19.7346 25.941C19.1672 25.5957 18.4519 25.423 17.5886 25.423C17.0706 25.423 16.5032 25.534 15.8866 25.756C15.2946 25.9533 14.7149 26.311 14.1476 26.829C13.5802 27.347 13.1116 28.0747 12.7416 29.012C12.3962 29.9493 12.2236 31.158 12.2236 32.638C12.2236 34.2167 12.4579 35.4747 12.9266 36.412C13.3952 37.3247 13.9502 37.9907 14.5916 38.41C15.2329 38.8047 15.8249 39.002 16.3676 39.002C17.1076 39.002 17.8106 38.78 18.4766 38.336C19.1672 37.8673 19.7346 37.115 20.1786 36.079C20.6226 35.043 20.8446 33.6617 20.8446 31.935L21.9176 35.857C21.5969 36.6463 21.3132 37.2507 21.0666 37.67C20.8446 38.0893 20.6719 38.3977 20.5486 38.595C20.3266 38.965 19.9689 39.3597 19.4756 39.779C19.0069 40.1983 18.4272 40.5683 17.7366 40.889C17.0706 41.185 16.3182 41.333 15.4796 41.333C14.0489 41.333 12.8156 41.0493 11.7796 40.482C10.7436 39.89 9.9419 38.9897 9.37457 37.781C8.8319 36.5723 8.56057 35.0183 8.56057 33.119C8.56057 31.3923 8.9429 29.826 9.70757 28.42C10.4722 26.9893 11.5452 25.8547 12.9266 25.016C14.3079 24.1527 15.9236 23.721 17.7736 23.721ZM24.1746 35.968C24.1746 36.5353 24.2239 37.0163 24.3226 37.411C24.4212 37.781 24.6309 38.0523 24.9516 38.225C25.2969 38.3977 25.8026 38.484 26.4686 38.484C26.4686 38.7307 26.4562 39.0143 26.4316 39.335C26.4069 39.631 26.3452 39.9147 26.2466 40.186C25.6299 40.2107 24.9146 40.334 24.1006 40.556C23.2866 40.7533 22.5959 41.0123 22.0286 41.333C21.7819 41.2097 21.5599 41.037 21.3626 40.815C21.1899 40.5683 21.1036 40.0257 21.1036 39.187C21.1036 38.6937 21.1406 38.262 21.2146 37.892C21.3132 37.4973 21.4489 36.856 21.6216 35.968H24.1746ZM24.1746 19.725V36.301H20.8446V19.725H24.1746ZM23.3606 14.471C23.5826 14.545 23.7676 14.693 23.9156 14.915C24.0882 15.137 24.1746 15.4823 24.1746 15.951V21.094H20.8446V19.725C20.8446 19.133 20.7829 18.652 20.6596 18.282C20.5609 17.8873 20.3142 17.5913 19.9196 17.394C19.5249 17.1967 18.9082 17.098 18.0696 17.098C18.0696 16.8267 18.0942 16.58 18.1436 16.358C18.1929 16.136 18.2792 15.9263 18.4026 15.729C18.7726 15.729 19.2906 15.6673 19.9566 15.544C20.6226 15.4207 21.2762 15.2603 21.9176 15.063C22.5836 14.8657 23.0646 14.6683 23.3606 14.471ZM29.3343 50.065C29.3343 49.7197 29.3467 49.4113 29.3713 49.14C29.396 48.8933 29.4453 48.6713 29.5193 48.474C30.1853 48.4247 30.7033 48.3013 31.0733 48.104C31.4433 47.9313 31.7023 47.6107 31.8503 47.142C31.9983 46.698 32.0723 46.069 32.0723 45.255V28.975C32.0723 28.383 32.0107 27.902 31.8873 27.532C31.764 27.162 31.505 26.8783 31.1103 26.681C30.7157 26.4837 30.1113 26.3727 29.2973 26.348C29.2973 26.0767 29.322 25.83 29.3713 25.608C29.4207 25.386 29.507 25.1763 29.6303 24.979C30.395 24.9297 31.2707 24.7817 32.2573 24.535C33.244 24.2883 34.021 24.017 34.5883 23.721C34.8103 23.795 34.9953 23.9553 35.1433 24.202C35.316 24.424 35.4023 24.8063 35.4023 25.349C35.4023 25.9163 35.316 26.459 35.1433 26.977C34.9953 27.4703 34.7857 28.1363 34.5143 28.975L35.4023 29.678V44.515C35.4023 45.5757 35.5133 46.3773 35.7353 46.92C35.9573 47.4873 36.315 47.8697 36.8083 48.067C37.3017 48.289 37.9307 48.4247 38.6953 48.474C38.7693 48.6713 38.8187 48.8933 38.8433 49.14C38.868 49.4113 38.8803 49.7197 38.8803 50.065C38.5103 50.0403 38.0663 50.0157 37.5483 49.991C37.055 49.991 36.5247 49.9787 35.9573 49.954C35.39 49.954 34.8103 49.954 34.2183 49.954C33.355 49.954 32.4423 49.954 31.4803 49.954C30.543 49.9787 29.8277 50.0157 29.3343 50.065ZM38.4733 41.333C37.7827 41.333 37.166 41.2713 36.6233 41.148C36.1053 41.0247 35.5257 40.8643 34.8843 40.667V37.818C35.3777 38.336 35.908 38.7677 36.4753 39.113C37.0673 39.4583 37.795 39.631 38.6583 39.631C39.1763 39.631 39.7313 39.5323 40.3233 39.335C40.94 39.113 41.532 38.743 42.0993 38.225C42.6667 37.707 43.123 36.9793 43.4683 36.042C43.8383 35.1047 44.0233 33.896 44.0233 32.416C44.0233 31.1087 43.8383 29.9863 43.4683 29.049C43.123 28.087 42.6297 27.347 41.9883 26.829C41.3717 26.311 40.6687 26.052 39.8793 26.052C39.164 26.052 38.461 26.2863 37.7703 26.755C37.0797 27.199 36.5123 27.939 36.0683 28.975C35.6243 30.011 35.4023 31.3923 35.4023 33.119L34.3293 29.197C34.65 28.4077 34.9213 27.8033 35.1433 27.384C35.39 26.9647 35.575 26.6563 35.6983 26.459C35.9203 26.089 36.2657 25.6943 36.7343 25.275C37.2277 24.831 37.8197 24.461 38.5103 24.165C39.201 23.869 39.9533 23.721 40.7673 23.721C42.2227 23.721 43.456 24.0047 44.4673 24.572C45.5033 25.1393 46.2927 26.0027 46.8353 27.162C47.4027 28.3213 47.6863 29.8013 47.6863 31.602C47.6863 33.4273 47.304 35.08 46.5393 36.56C45.7747 38.04 44.7017 39.2117 43.3203 40.075C41.939 40.9137 40.3233 41.333 38.4733 41.333Z" fill="#373737"/>
<path d="M53.5043 40.075C52.8383 40.075 52.3203 39.89 51.9503 39.52C51.5803 39.15 51.3953 38.6813 51.3953 38.114C51.3953 37.5467 51.605 37.0533 52.0243 36.634C52.4436 36.2147 52.9863 36.005 53.6523 36.005C54.2936 36.005 54.787 36.227 55.1323 36.671C55.5023 37.0903 55.6873 37.5097 55.6873 37.929C55.6873 38.669 55.4653 39.2117 55.0213 39.557C54.5773 39.9023 54.0716 40.075 53.5043 40.075ZM53.5043 29.493C52.8383 29.493 52.3203 29.308 51.9503 28.938C51.5803 28.568 51.3953 28.0993 51.3953 27.532C51.3953 26.9647 51.605 26.4713 52.0243 26.052C52.4436 25.6327 52.9863 25.423 53.6523 25.423C54.2936 25.423 54.787 25.645 55.1323 26.089C55.5023 26.5083 55.6873 26.9277 55.6873 27.347C55.6873 28.087 55.4653 28.6297 55.0213 28.975C54.5773 29.3203 54.0716 29.493 53.5043 29.493Z" fill="#9C6DFF"/>
</g>
<defs>
<clipPath id="clip0_1_2">
<rect width="64" height="64" fill="white"/>
</clipPath>
</defs>
</svg>
